<!DOCTYPE svg PUBLIC "-//W3C//DTD SVG 1.1//EN" "http://www.w3.org/Graphics/SVG/1.1/DTD/svg11.dtd">
<!-- Uploaded to: SVG Repo, www.svgrepo.com, Transformed by: SVG Repo Mixer Tools -->
<svg fill="#ffffff" height="700px" width="700px" version="1.1" id="Layer_1" xmlns="http://www.w3.org/2000/svg" xmlns:xlink="http://www.w3.org/1999/xlink" viewBox="0 0 511.999 511.999" xml:space="preserve" stroke="#ffffff">

<g id="SVGRepo_bgCarrier" stroke-width="0"/>

<g id="SVGRepo_tracerCarrier" stroke-linecap="round" stroke-linejoin="round"/>

<g id="SVGRepo_iconCarrier"> <g> <g> <path d="M492.388,19.61c-26.144-26.145-68.463-26.148-94.611,0.001l-74.748,74.748L138.759,31.652 c-6.032-2.052-12.708-0.5-17.215,4.007L74.239,82.965c-7.383,7.38-6.259,19.648,2.306,25.577l137.268,95.031l-39.985,39.986 l-50.355-10.072c-5.481-1.093-11.151,0.62-15.106,4.575l-47.306,47.307c-8.062,8.059-5.862,21.681,4.346,26.785l89.626,44.814 l44.812,89.625c5.108,10.216,18.732,12.4,26.786,4.346l47.306-47.307c3.954-3.954,5.671-9.623,4.574-15.106L268.44,338.17 l39.986-39.985l95.032,137.268c5.973,8.628,18.243,9.642,25.577,2.306l47.307-47.307c4.506-4.506,6.06-11.181,4.006-17.214 L417.64,188.97l74.748-74.749C518.534,88.076,518.536,45.758,492.388,19.61z M112.063,92.447l25.775-25.775l158.828,54.049 l-58.811,58.811L112.063,92.447z M445.327,374.161l-25.775,25.776l-87.086-125.791c23.696-23.696,17.323-17.323,58.811-58.811 L445.327,374.161z M468.737,90.569c-6.308,6.308-224.769,224.77-230.278,230.279c-3.954,3.954-5.671,9.623-4.575,15.106 l10.071,50.355l-24.568,24.568l-36.928-73.856c-1.619-3.237-4.243-5.862-7.48-7.479l-73.857-36.929l24.568-24.568l50.355,10.072 c5.484,1.092,11.152-0.621,15.106-4.575L421.431,43.264c13.075-13.075,34.231-13.074,47.306,0 C481.809,56.336,481.81,77.496,468.737,90.569z"/> </g> </g> <g> <g> <path d="M95.453,366.371c-6.532-6.531-17.122-6.531-23.653,0L4.9,433.272c-6.532,6.531-6.532,17.121,0,23.653 c6.532,6.532,17.121,6.532,23.653,0l66.901-66.901C101.985,383.494,101.985,372.903,95.453,366.371z"/> </g> </g> <g> <g> <path d="M145.629,416.547c-6.532-6.531-17.122-6.531-23.653,0l-66.901,66.901c-6.532,6.531-6.532,17.121,0,23.653 c6.532,6.532,17.121,6.532,23.653,0l66.901-66.901C152.161,433.669,152.161,423.079,145.629,416.547z"/> </g> </g> </g>

</svg>