<!DOCTYPE svg PUBLIC "-//W3C//DTD SVG 1.1//EN" "http://www.w3.org/Graphics/SVG/1.1/DTD/svg11.dtd">
<!-- Uploaded to: SVG Repo, www.svgrepo.com, Transformed by: SVG Repo Mixer Tools -->
<svg fill="#ffffff" height="800px" width="800px" version="1.1" id="Layer_1" xmlns="http://www.w3.org/2000/svg" xmlns:xlink="http://www.w3.org/1999/xlink" viewBox="0 0 512 512" xml:space="preserve" transform="matrix(-1, 0, 0, 1, 0, 0)rotate(0)">
<g id="SVGRepo_bgCarrier" stroke-width="0"/>
<g id="SVGRepo_tracerCarrier" stroke-linecap="round" stroke-linejoin="round"/>
<g id="SVGRepo_iconCarrier"> <g> <g> <path d="M328.199,55.834v182.789c0.808,0.315,1.607,0.654,2.394,1.016H512C504.083,141.92,425.917,63.752,328.199,55.834z"/> </g> </g> <g> <g> <path d="M197.16,440.474c0,9.036,7.326,16.362,16.362,16.362h81.954V326.957C240.287,334.793,197.16,382.265,197.16,440.474z"/> </g> </g> <g> <g> <path d="M356.191,272.362c4.069,21.735-8.139,42.605-27.992,50.355v133.449C425.916,448.248,504.083,370.08,512,272.362H356.191z"/> </g> </g> <g> <g> <path d="M138.584,55.164c-0.022,0-0.041,0.003-0.063,0.003H16.362C7.326,55.168,0,62.493,0,71.529s7.326,16.362,16.362,16.362 h106.677c1.395,14.068,4.576,27.894,9.472,41.102H64.122c-9.036,0-16.362,7.326-16.362,16.362s7.326,16.362,16.362,16.362h84.944 c28.406,43.166,78.529,73.821,146.41,73.821V55.164H138.584z M210.064,166.995c-11.954,0-21.644-9.691-21.644-21.644 s9.691-21.644,21.644-21.644s21.644,9.691,21.644,21.644C231.708,157.305,222.018,166.995,210.064,166.995z"/> </g> </g> </g>
</svg>