<svg width="431" height="298" xmlns="http://www.w3.org/2000/svg" data-name="Layer 1">
 <defs>
  <linearGradient id="linear-gradient" x1="0.07097" y1="0.77515" x2="0.9829" y2="0.20197">
   <stop offset="0" stop-color="#454da1"/>
   <stop offset="1" stop-color="#7e89ff"/>
  </linearGradient>
 </defs>
 <g>
  <title>Layer 1</title>
  <path class="cls-1" d="m412.84862,68.29658c-6.85,-1.17 -15.19,-1.13 -24.57,-0.15c7.01,-7.07 12.76,-14.16 16.68,-21.09c8.28,-15.09 2.59,-28.8 -14.46,-31.97c-19.33,-3.31 -50.54,3.05 -83.58,12.9c-3.29,-2.32 -6.68,-4.52 -10.17,-6.58c-38.37,-23.2 -87,-27.94 -128.84,-12.27c38.96,-14.46 84.65,-8.24 118,16.4c2.82,2.06 5.52,4.2 8.11,6.44c-34.72,11.09 -70.02,25.12 -94.51,35.1c30.5,-12.21 61.8,-22.58 93.72,-30.26c1.64,-0.38 3.27,-0.76 4.91,-1.13c13.92,13.11 24.1,28.79 30.55,45.67c0.16,0.4 0.3,0.8 0.45,1.21c-4.54,2.55 -9.12,5.05 -13.72,7.5c-32.68,17.39 -66.82,32.37 -100.71,46.92c-34.23,14.08 -68.95,28.05 -104.37,39.24c-4.7,1.49 -9.41,2.92 -14.13,4.29c-0.2,-0.44 -0.41,-0.86 -0.61,-1.3c-8.02,-17.46 -11.56,-35.86 -11.14,-53.96c1.24,-0.79 2.49,-1.59 3.74,-2.38c28.3,-17.67 58.12,-32.95 88.71,-46.33c-24.24,10.47 -59.47,26.02 -92.21,43.29c3.03,-45.61 31.09,-88.38 75.76,-107.7c-49.44,21.13 -80.68,65.82 -88.4,114.54c-30.03,16.64 -56.26,34.4 -67.41,50.48c-6.76,9.87 -6.76,21.82 4.09,28.79c7.51,4.68 16.3,5.73 24.34,6.37c3.75,0.23 7.46,0.32 11.16,0.27c-7.34,6.05 -13.26,12.02 -17.25,17.78c-6.76,9.88 -6.76,21.82 4.08,28.79c7.52,4.68 16.31,5.74 24.35,6.37c9.97,0.62 19.74,0.15 29.55,-0.8c11.23,-1.32 22.39,-3.04 33.46,-5.12c85.86,78.58 229.6,32.2 249.24,-87.83c0.93,-5.7 1.5,-11.43 1.71,-17.14c24.85,-17.03 47.66,-36.26 57.9,-54.36c8.28,-15.08 2.59,-28.79 -14.46,-31.97l0.03,-0.01zm-99.89,-35.77c16.06,-3.21 32.21,-5.57 48.52,-6.14c8.48,-0.19 17.76,-0.05 25.61,2.36c2.34,0.8 4.18,1.57 5.45,3.11c0.16,0.3 0.2,0.48 0.21,0.62c-0.31,2.1 -1.22,3.71 -2.66,5.85c-7.39,10.01 -18.3,17.56 -28.84,24.86c-4.51,2.95 -9.08,5.81 -13.68,8.62c-9.09,-14.95 -20.77,-28.33 -34.6,-39.28l-0.01,0zm-34.73,109.39c15.52,-7.89 36.68,-19.51 57.54,-32.99c1.64,11.73 1.64,23.66 0,35.42c-32.07,16.94 -65.51,31.61 -98.72,45.86c-33.3,13.71 -67.06,27.29 -101.48,38.32c-9.46,-6.94 -18.05,-15.28 -25.43,-24.97c58.45,-12.65 114.58,-35.07 168.08,-61.63l0.01,-0.01zm-256.76,51.26c-2.33,-0.41 -4,-0.91 -5.59,-1.88l-0.51,-0.37c-0.09,-0.12 -0.21,-0.29 -0.3,-0.62c-0.37,-7.82 11.96,-20.27 17.88,-26.05c11.76,-11.16 24.68,-20.99 38.12,-30.14c-1.89,17.35 -0.79,35.07 3.5,52.31c-5.03,1.26 -10.07,2.46 -15.13,3.58c-12.6,2.42 -25.63,4.9 -37.97,3.17zm60.32,50.04c-12.6,2.42 -25.63,4.91 -37.97,3.17c-2.33,-0.41 -4.01,-0.9 -5.59,-1.88l-0.51,-0.37c-0.09,-0.12 -0.21,-0.28 -0.3,-0.62c-0.37,-7.82 11.96,-20.26 17.88,-26.05c2.1,-1.99 4.25,-3.95 6.42,-5.87c0.31,-0.02 0.62,-0.05 0.94,-0.09c6.52,-0.76 13.01,-1.67 19.48,-2.7c4.5,10.46 10.31,20.57 17.49,30.13c-5.92,1.53 -11.86,2.95 -17.83,4.27l-0.01,0.01zm213.12,-22.05c-35.14,31.66 -82.47,39.06 -123.5,25.69c44.54,-12.99 87.64,-31.11 129.16,-51.72c6.92,-3.52 14.95,-7.78 23.6,-12.62c-6.94,14.23 -16.68,27.41 -29.26,38.64l0,0.01zm117.52,-129.61c-7.39,10.01 -18.3,17.55 -28.84,24.86c-5.24,3.41 -10.54,6.73 -15.9,9.96c-1.81,-11.34 -4.93,-22.43 -9.26,-33.02c5.91,-4.34 11.59,-8.79 16.89,-13.29c2.83,-0.2 5.67,-0.36 8.5,-0.46c8.48,-0.19 17.76,-0.05 25.61,2.35c2.34,0.8 4.18,1.57 5.45,3.12c0.16,0.29 0.19,0.48 0.21,0.62c-0.31,2.09 -1.22,3.71 -2.66,5.85l0,0.01z" fill="url(#linear-gradient)" id="svg_1"/>
 </g>
</svg>