<!DOCTYPE svg PUBLIC "-//W3C//DTD SVG 1.1//EN" "http://www.w3.org/Graphics/SVG/1.1/DTD/svg11.dtd">
<!-- Uploaded to: SVG Repo, www.svgrepo.com, Transformed by: SVG Repo Mixer Tools -->
<svg height="800px" width="800px" version="1.1" id="_x32_" xmlns="http://www.w3.org/2000/svg" xmlns:xlink="http://www.w3.org/1999/xlink" viewBox="-51.2 -51.2 614.40 614.40" xml:space="preserve" fill="#ffffff" stroke="#ffffff">

<g id="SVGRepo_bgCarrier" stroke-width="0"/>

<g id="SVGRepo_tracerCarrier" stroke-linecap="round" stroke-linejoin="round"/>

<g id="SVGRepo_iconCarrier"> <style type="text/css"> .st0{fill:#ffffff;} </style> <g> <path class="st0" d="M256.004,0C114.842,0,0,114.842,0,256.004C0,397.158,114.842,512,256.004,512 C397.158,512,512,397.158,512,256.004C512,114.842,397.158,0,256.004,0z M256.004,475.427c-120.996,0-219.43-98.435-219.43-219.423 c0-120.996,98.435-219.438,219.43-219.438c120.989,0,219.424,98.442,219.424,219.438 C475.427,376.992,376.992,475.427,256.004,475.427z"/> <path class="st0" d="M256.004,73.146c-100.83,0-182.865,82.02-182.865,182.858c0,100.822,82.035,182.85,182.865,182.85 c100.822,0,182.858-82.028,182.858-182.85C438.862,155.166,356.826,73.146,256.004,73.146z M256.004,402.281 c-80.664,0-146.284-65.62-146.284-146.277c0-80.664,65.62-146.292,146.284-146.292c80.656,0,146.278,65.628,146.278,146.292 C402.281,336.661,336.66,402.281,256.004,402.281z"/> <path class="st0" d="M256.004,146.284c-60.498,0-109.719,49.214-109.719,109.72c0,60.49,49.221,109.704,109.719,109.704 c60.491,0,109.712-49.214,109.712-109.704C365.716,195.498,316.494,146.284,256.004,146.284z M256.004,329.142 c-40.332,0-73.146-32.806-73.146-73.138c0-40.332,32.814-73.146,73.146-73.146c40.332,0,73.138,32.814,73.138,73.146 C329.142,296.336,296.336,329.142,256.004,329.142z"/> <path class="st0" d="M256.004,219.43c-20.202,0-36.581,16.37-36.581,36.574c0,20.195,16.378,36.558,36.581,36.558 c20.196,0,36.573-16.363,36.573-36.558C292.576,235.801,276.199,219.43,256.004,219.43z"/> </g> </g>

</svg>