<!DOCTYPE svg PUBLIC "-//W3C//DTD SVG 1.1//EN" "http://www.w3.org/Graphics/SVG/1.1/DTD/svg11.dtd">
<!-- Uploaded to: SVG Repo, www.svgrepo.com, Transformed by: SVG Repo Mixer Tools -->
<svg height="800px" width="800px" version="1.1" id="_x32_" xmlns="http://www.w3.org/2000/svg" xmlns:xlink="http://www.w3.org/1999/xlink" viewBox="0 0 512 512" xml:space="preserve" fill="#ffffff" transform="matrix(-1, 0, 0, 1, 0, 0)">
<g id="SVGRepo_bgCarrier" stroke-width="0"/>
<g id="SVGRepo_tracerCarrier" stroke-linecap="round" stroke-linejoin="round"/>
<g id="SVGRepo_iconCarrier"> <style type="text/css"> .st0{fill:#ffffff;} </style> <g> <path class="st0" d="M509.643,147.547c-27.948,10.484-52.392,6.987-76.836,38.425c-24.458-31.438-48.917-27.941-76.865-38.425 c-15.697,83.83,52.406,104.791,52.406,104.791l-24.817,42.512c-9.407,11.575-23.094,18.842-37.944,20.134 c-14.85,1.293-29.6-3.504-40.845-13.27l-58.955-56.837c-30.275-26.297-68.262-41.728-108.058-44.386v-75.78 c0.014-9.86,3.964-18.685,10.426-25.141c6.449-6.456,15.281-10.412,25.134-10.42c9.852,0.007,18.67,3.964,25.147,10.42 c6.434,6.456,10.398,15.281,10.412,25.141c-0.014,7.058-2.039,13.564-5.558,19.079c-2.916,4.581-1.58,10.656,2.987,13.579 c4.582,2.916,10.656,1.572,13.587-2.995c5.458-8.566,8.631-18.792,8.631-29.664c0-30.505-24.703-55.207-55.207-55.222 c-18.829,0.007-35.416,9.436-45.384,23.812c-9.967-14.376-26.555-23.805-45.384-23.812c-30.504,0.015-55.206,24.716-55.206,55.222 c-0.014,10.872,3.16,21.097,8.632,29.664c2.915,4.567,9.005,5.91,13.572,2.995c4.567-2.923,5.916-8.998,3.002-13.565v-0.014 c-3.519-5.515-5.558-12.021-5.558-19.079c0.014-9.86,3.964-18.685,10.412-25.141c6.478-6.456,15.296-10.412,25.147-10.42 c9.838,0.007,18.671,3.964,25.134,10.42c6.449,6.456,10.412,15.281,10.412,25.141v75.234H90.566C50.065,199.946,0,235.52,0,295.351 v71.156c0,42.044,27.503,76.002,80.857,76.002h171.408h80.441c37.384,0,71.033-22.706,85.022-57.375l39.524-132.797 C457.251,252.338,525.369,231.376,509.643,147.547z"/> </g> </g>
</svg>